<svg width="18" height="18" viewBox="0 0 18 18" fill="none" xmlns="http://www.w3.org/2000/svg">
<g clip-path="url(#clip0_3_86)">
<path d="M8.72881 1.5C4.73592 1.5 1.50254 4.86 1.50254 9C1.50254 13.14 4.73592 16.5 8.72881 16.5C12.7289 16.5 15.9695 13.14 15.9695 9C15.9695 4.86 12.7289 1.5 8.72881 1.5ZM8.73604 15C5.53883 15 2.94924 12.315 2.94924 9C2.94924 5.685 5.53883 3 8.73604 3C11.9333 3 14.5228 5.685 14.5228 9C14.5228 12.315 11.9333 15 8.73604 15Z" fill="white"/>
<path d="M9.09772 5.25H8.01269V9.75L11.8103 12.1125L12.3528 11.19L9.09772 9.1875V5.25Z" fill="white"/>
</g>
<defs>
<clipPath id="clip0_3_86">
<rect width="17.3604" height="18" fill="white" transform="translate(0.0558395)"/>
</clipPath>
</defs>
</svg>
